<mxfile host="app.diagrams.net" modified="2022-11-15T01:27:32.133Z" agent="5.0 (Macintosh; Intel Mac OS X 10_15_7) AppleWebKit/537.36 (KHTML, like Gecko) Chrome/107.0.0.0 Safari/537.36" etag="RaQDuRZ5ZGmAflNYGoby" version="20.5.3" type="github">
  <diagram id="C5RBs43oDa-KdzZeNtuy" name="Page-1">
    <mxGraphModel dx="1255" dy="695" grid="1" gridSize="10" guides="1" tooltips="1" connect="1" arrows="1" fold="1" page="1" pageScale="1" pageWidth="827" pageHeight="1169" math="0" shadow="0">
      <root>
        <mxCell id="WIyWlLk6GJQsqaUBKTNV-0" />
        <mxCell id="WIyWlLk6GJQsqaUBKTNV-1" parent="WIyWlLk6GJQsqaUBKTNV-0" />
        <mxCell id="EKHFdz2qTN6Ne2kiCsLv-0" value="商家" style="shape=umlActor;verticalLabelPosition=bottom;verticalAlign=top;html=1;outlineConnect=0;" vertex="1" parent="WIyWlLk6GJQsqaUBKTNV-1">
          <mxGeometry x="229" y="137" width="30" height="60" as="geometry" />
        </mxCell>
        <mxCell id="EKHFdz2qTN6Ne2kiCsLv-1" value="标品申请" style="ellipse;whiteSpace=wrap;html=1;" vertex="1" parent="WIyWlLk6GJQsqaUBKTNV-1">
          <mxGeometry x="489" y="77" width="110" height="40" as="geometry" />
        </mxCell>
        <mxCell id="EKHFdz2qTN6Ne2kiCsLv-4" value="" style="endArrow=classic;html=1;rounded=0;entryX=0;entryY=0.5;entryDx=0;entryDy=0;" edge="1" parent="WIyWlLk6GJQsqaUBKTNV-1" target="EKHFdz2qTN6Ne2kiCsLv-1">
          <mxGeometry width="50" height="50" relative="1" as="geometry">
            <mxPoint x="409" y="147" as="sourcePoint" />
            <mxPoint x="449" y="127" as="targetPoint" />
          </mxGeometry>
        </mxCell>
        <mxCell id="EKHFdz2qTN6Ne2kiCsLv-5" value="商品绑标" style="ellipse;whiteSpace=wrap;html=1;" vertex="1" parent="WIyWlLk6GJQsqaUBKTNV-1">
          <mxGeometry x="489" y="227" width="110" height="40" as="geometry" />
        </mxCell>
        <mxCell id="EKHFdz2qTN6Ne2kiCsLv-6" value="申请列表查询" style="ellipse;whiteSpace=wrap;html=1;" vertex="1" parent="WIyWlLk6GJQsqaUBKTNV-1">
          <mxGeometry x="489" y="147" width="110" height="40" as="geometry" />
        </mxCell>
        <mxCell id="EKHFdz2qTN6Ne2kiCsLv-7" value="" style="endArrow=classic;html=1;rounded=0;entryX=0;entryY=0.5;entryDx=0;entryDy=0;" edge="1" parent="WIyWlLk6GJQsqaUBKTNV-1" target="EKHFdz2qTN6Ne2kiCsLv-6">
          <mxGeometry width="50" height="50" relative="1" as="geometry">
            <mxPoint x="409" y="167" as="sourcePoint" />
            <mxPoint x="399" y="217" as="targetPoint" />
          </mxGeometry>
        </mxCell>
        <mxCell id="EKHFdz2qTN6Ne2kiCsLv-8" value="" style="endArrow=classic;html=1;rounded=0;entryX=0;entryY=0.5;entryDx=0;entryDy=0;" edge="1" parent="WIyWlLk6GJQsqaUBKTNV-1" target="EKHFdz2qTN6Ne2kiCsLv-5">
          <mxGeometry width="50" height="50" relative="1" as="geometry">
            <mxPoint x="409" y="187" as="sourcePoint" />
            <mxPoint x="449" y="207" as="targetPoint" />
          </mxGeometry>
        </mxCell>
        <mxCell id="EKHFdz2qTN6Ne2kiCsLv-10" value="京麦平台" style="ellipse;whiteSpace=wrap;html=1;" vertex="1" parent="WIyWlLk6GJQsqaUBKTNV-1">
          <mxGeometry x="319" y="147" width="90" height="40" as="geometry" />
        </mxCell>
        <mxCell id="EKHFdz2qTN6Ne2kiCsLv-11" value="" style="endArrow=classic;html=1;rounded=0;entryX=0;entryY=0.5;entryDx=0;entryDy=0;" edge="1" parent="WIyWlLk6GJQsqaUBKTNV-1" source="EKHFdz2qTN6Ne2kiCsLv-0" target="EKHFdz2qTN6Ne2kiCsLv-10">
          <mxGeometry width="50" height="50" relative="1" as="geometry">
            <mxPoint x="259" y="207" as="sourcePoint" />
            <mxPoint x="309" y="157" as="targetPoint" />
          </mxGeometry>
        </mxCell>
        <mxCell id="EKHFdz2qTN6Ne2kiCsLv-12" value="运维" style="shape=umlActor;verticalLabelPosition=bottom;verticalAlign=top;html=1;outlineConnect=0;" vertex="1" parent="WIyWlLk6GJQsqaUBKTNV-1">
          <mxGeometry x="229" y="542" width="30" height="60" as="geometry" />
        </mxCell>
        <mxCell id="EKHFdz2qTN6Ne2kiCsLv-13" value="汽配数据中台" style="ellipse;whiteSpace=wrap;html=1;" vertex="1" parent="WIyWlLk6GJQsqaUBKTNV-1">
          <mxGeometry x="319" y="552" width="90" height="40" as="geometry" />
        </mxCell>
        <mxCell id="EKHFdz2qTN6Ne2kiCsLv-14" value="" style="endArrow=classic;html=1;rounded=0;entryX=0;entryY=0.5;entryDx=0;entryDy=0;" edge="1" parent="WIyWlLk6GJQsqaUBKTNV-1" target="EKHFdz2qTN6Ne2kiCsLv-13">
          <mxGeometry width="50" height="50" relative="1" as="geometry">
            <mxPoint x="260" y="572" as="sourcePoint" />
            <mxPoint x="330" y="572" as="targetPoint" />
          </mxGeometry>
        </mxCell>
        <mxCell id="EKHFdz2qTN6Ne2kiCsLv-15" value="标品审核" style="ellipse;whiteSpace=wrap;html=1;" vertex="1" parent="WIyWlLk6GJQsqaUBKTNV-1">
          <mxGeometry x="491" y="380" width="110" height="40" as="geometry" />
        </mxCell>
        <mxCell id="EKHFdz2qTN6Ne2kiCsLv-17" value="审核列表查询" style="ellipse;whiteSpace=wrap;html=1;" vertex="1" parent="WIyWlLk6GJQsqaUBKTNV-1">
          <mxGeometry x="491" y="450" width="110" height="40" as="geometry" />
        </mxCell>
        <mxCell id="EKHFdz2qTN6Ne2kiCsLv-18" value="适配车型维护" style="ellipse;whiteSpace=wrap;html=1;" vertex="1" parent="WIyWlLk6GJQsqaUBKTNV-1">
          <mxGeometry x="491" y="520" width="110" height="40" as="geometry" />
        </mxCell>
        <mxCell id="EKHFdz2qTN6Ne2kiCsLv-19" value="excel下载" style="ellipse;whiteSpace=wrap;html=1;" vertex="1" parent="WIyWlLk6GJQsqaUBKTNV-1">
          <mxGeometry x="491" y="590" width="110" height="40" as="geometry" />
        </mxCell>
        <mxCell id="EKHFdz2qTN6Ne2kiCsLv-20" value="品牌维护" style="ellipse;whiteSpace=wrap;html=1;" vertex="1" parent="WIyWlLk6GJQsqaUBKTNV-1">
          <mxGeometry x="491" y="660" width="110" height="40" as="geometry" />
        </mxCell>
        <mxCell id="EKHFdz2qTN6Ne2kiCsLv-21" value="标品入库" style="ellipse;whiteSpace=wrap;html=1;" vertex="1" parent="WIyWlLk6GJQsqaUBKTNV-1">
          <mxGeometry x="489" y="730" width="110" height="40" as="geometry" />
        </mxCell>
        <mxCell id="EKHFdz2qTN6Ne2kiCsLv-22" value="" style="endArrow=classic;html=1;rounded=0;entryX=0;entryY=0.5;entryDx=0;entryDy=0;exitX=1;exitY=0;exitDx=0;exitDy=0;" edge="1" parent="WIyWlLk6GJQsqaUBKTNV-1" source="EKHFdz2qTN6Ne2kiCsLv-13" target="EKHFdz2qTN6Ne2kiCsLv-15">
          <mxGeometry width="50" height="50" relative="1" as="geometry">
            <mxPoint x="410" y="560" as="sourcePoint" />
            <mxPoint x="460" y="540" as="targetPoint" />
          </mxGeometry>
        </mxCell>
        <mxCell id="EKHFdz2qTN6Ne2kiCsLv-23" value="" style="endArrow=classic;html=1;rounded=0;entryX=0;entryY=0.5;entryDx=0;entryDy=0;exitX=0.956;exitY=0.275;exitDx=0;exitDy=0;exitPerimeter=0;" edge="1" parent="WIyWlLk6GJQsqaUBKTNV-1" source="EKHFdz2qTN6Ne2kiCsLv-13" target="EKHFdz2qTN6Ne2kiCsLv-17">
          <mxGeometry width="50" height="50" relative="1" as="geometry">
            <mxPoint x="410" y="570" as="sourcePoint" />
            <mxPoint x="480" y="560" as="targetPoint" />
          </mxGeometry>
        </mxCell>
        <mxCell id="EKHFdz2qTN6Ne2kiCsLv-24" value="" style="endArrow=classic;html=1;rounded=0;entryX=0;entryY=0.5;entryDx=0;entryDy=0;" edge="1" parent="WIyWlLk6GJQsqaUBKTNV-1" target="EKHFdz2qTN6Ne2kiCsLv-18">
          <mxGeometry width="50" height="50" relative="1" as="geometry">
            <mxPoint x="410" y="570" as="sourcePoint" />
            <mxPoint x="480" y="570" as="targetPoint" />
          </mxGeometry>
        </mxCell>
        <mxCell id="EKHFdz2qTN6Ne2kiCsLv-25" value="" style="endArrow=classic;html=1;rounded=0;entryX=0;entryY=0.5;entryDx=0;entryDy=0;exitX=1;exitY=0.5;exitDx=0;exitDy=0;" edge="1" parent="WIyWlLk6GJQsqaUBKTNV-1" source="EKHFdz2qTN6Ne2kiCsLv-13" target="EKHFdz2qTN6Ne2kiCsLv-19">
          <mxGeometry width="50" height="50" relative="1" as="geometry">
            <mxPoint x="400" y="640" as="sourcePoint" />
            <mxPoint x="450" y="590" as="targetPoint" />
          </mxGeometry>
        </mxCell>
        <mxCell id="EKHFdz2qTN6Ne2kiCsLv-26" value="" style="endArrow=classic;html=1;rounded=0;entryX=0;entryY=0.5;entryDx=0;entryDy=0;exitX=0.933;exitY=0.85;exitDx=0;exitDy=0;exitPerimeter=0;" edge="1" parent="WIyWlLk6GJQsqaUBKTNV-1" source="EKHFdz2qTN6Ne2kiCsLv-13" target="EKHFdz2qTN6Ne2kiCsLv-20">
          <mxGeometry width="50" height="50" relative="1" as="geometry">
            <mxPoint x="390" y="660" as="sourcePoint" />
            <mxPoint x="440" y="610" as="targetPoint" />
          </mxGeometry>
        </mxCell>
        <mxCell id="EKHFdz2qTN6Ne2kiCsLv-27" value="" style="endArrow=classic;html=1;rounded=0;entryX=0;entryY=0.5;entryDx=0;entryDy=0;exitX=1;exitY=1;exitDx=0;exitDy=0;" edge="1" parent="WIyWlLk6GJQsqaUBKTNV-1" source="EKHFdz2qTN6Ne2kiCsLv-13" target="EKHFdz2qTN6Ne2kiCsLv-21">
          <mxGeometry width="50" height="50" relative="1" as="geometry">
            <mxPoint x="370" y="660" as="sourcePoint" />
            <mxPoint x="420" y="610" as="targetPoint" />
          </mxGeometry>
        </mxCell>
        <mxCell id="EKHFdz2qTN6Ne2kiCsLv-28" value="推送主站" style="ellipse;whiteSpace=wrap;html=1;" vertex="1" parent="WIyWlLk6GJQsqaUBKTNV-1">
          <mxGeometry x="491" y="800" width="110" height="40" as="geometry" />
        </mxCell>
        <mxCell id="EKHFdz2qTN6Ne2kiCsLv-29" value="" style="endArrow=classic;html=1;rounded=0;entryX=0;entryY=0.5;entryDx=0;entryDy=0;exitX=0.767;exitY=1.05;exitDx=0;exitDy=0;exitPerimeter=0;" edge="1" parent="WIyWlLk6GJQsqaUBKTNV-1" source="EKHFdz2qTN6Ne2kiCsLv-13" target="EKHFdz2qTN6Ne2kiCsLv-28">
          <mxGeometry width="50" height="50" relative="1" as="geometry">
            <mxPoint x="340" y="720" as="sourcePoint" />
            <mxPoint x="390" y="670" as="targetPoint" />
          </mxGeometry>
        </mxCell>
      </root>
    </mxGraphModel>
  </diagram>
</mxfile>
